<svg width="32" height="32" viewBox="0 0 32 32" fill="none" xmlns="http://www.w3.org/2000/svg">
<path fill-rule="evenodd" clip-rule="evenodd" d="M29.5432 20.386C29.4882 18.4061 29.1307 16.4812 28.4983 14.6938C28.1683 13.7314 27.7283 12.7964 27.2333 11.9164C26.2709 10.2115 25.0609 8.67161 23.631 7.35167C22.861 6.6367 22.0086 5.97674 21.1011 5.39926C18.5438 3.74934 15.5464 2.73189 12.3291 2.5119C11.9441 2.48441 11.5591 2.48441 11.1466 2.48441H2.45703V11.1465C2.45703 11.284 2.45703 11.4215 2.45703 11.5865C2.45703 11.7515 2.45703 11.8889 2.48453 12.0539C2.48453 12.1914 2.51203 12.3564 2.51203 12.4939C2.51203 12.6314 2.53953 12.7964 2.53953 12.9339C3.44698 22.2559 11.3116 29.5156 20.8811 29.5156H29.5432V20.8535C29.5432 20.6885 29.5432 20.551 29.5432 20.386ZM26.4634 24.2908L19.0937 16.9487L16.6738 14.5013L16.1239 13.9513L15.5739 13.4014C15.2164 13.0439 14.7489 12.9064 14.2815 12.9614C13.9515 13.0164 13.649 13.1539 13.4015 13.4014C12.7965 14.0063 12.7965 14.9688 13.4015 15.5738L16.2064 18.3786L24.291 26.4357H20.8811C12.4115 26.4357 5.53688 19.5886 5.53688 11.119V5.53676H11.1191C11.6966 5.53676 12.2466 5.56426 12.7965 5.61925C14.9964 5.86674 17.0588 6.55421 18.8737 7.62666C19.7537 8.14913 20.5787 8.7541 21.3486 9.44157C22.4486 10.404 23.411 11.559 24.181 12.7964C24.731 13.7039 25.1984 14.6663 25.5834 15.6563C26.1609 17.2787 26.4909 19.0386 26.4909 20.8535V24.2908H26.4634Z" fill="#22C55D"/>
</svg>
